Patient4_TMGait_0pt5_02_left_35_EMG.mot
version=1
nRows=40
nColumns=33
inDegrees=no
endheader
time	1LAddLong	2LGlutMax	3LGlutMed	4LIliopsoas	5LSemiMemb	6LBicFemLong	7LRecFem	8LVastMed	9LVastLat	10LGasMed	11LTibAnt	12lTibPost	13LPeroneusLong	14LSol	15LExtDigLong	16LFlexDigLong	17RAddLong	18RGlutMax	19RGlutMed	20RIliopsoas	21RSemiMemb	22RBicFemLong	23RRecFem	24RVastMed	25RVastLat	26RGasMed	27RTibAnt	28RTibPost	29RPeroneusLong	30RSol	31RExtDigLong	32RFlexDigLong
45.955	-0.012512	0.078735	-0.12054	0.003967	-0.06073	0.036469	0.060577	0.013123	0.004425	0.26459	-0.011444	0.028229	-0.018616	-0.041809	0.006256	-0.18753	0.016479	-0.18845	-0.072174	-0.021973	0.30594	-0.014801	0.029449	-0.23758	0.05127	0.002747	0.05127	0.004883	0.16129	-0.048065	-0.006409	-0.000305
45.956	-0.007782	0.074921	-0.11704	0.008698	-0.12878	0.0383	0.057373	0.005646	0.016022	0.071869	-0.014191	0.031586	-0.10941	-0.54581	0.008698	-0.082703	0.002441	-0.25742	0.048981	-0.007172	0.3714	-0.063171	0.028534	-0.22339	0.042572	-0.000458	0.051117	0.005188	0.12848	-0.02182	-0.001373	-0.003357
45.957	-0.002136	0.076752	-0.11566	0.014038	-0.11475	-0.031281	0.043793	0.003815	0.013733	0.056458	-0.008087	0.030365	-0.1535	-0.85785	0.021362	0.091705	-0.007172	-0.25482	-0.043182	0.009003	0.46265	-0.13214	-0.035553	-0.12314	0.095215	-0.002136	0.018005	0.002136	0.10544	-0.000916	0.000153	0.003204
45.958	0.010223	0.1033	-0.14847	0.005493	0.008698	-0.14832	0.02243	0.006714	0.00885	0.024109	-0.017242	0.024719	-0.11581	-0.61554	0.026398	0.2449	0.002136	-0.20966	-0.11688	0.0177	0.26993	-0.20599	-0.05188	0.2214	0.177	-0.00061	0.045319	0.007782	-0.091553	-0.055542	-0.00061	-0.007019
45.959	0.018158	0.10696	-0.15579	0.011597	0.050049	-0.19836	0.041962	0.000153	0.017395	-0.13977	-0.007477	0.00351	-0.078125	-0.11231	0.018005	-0.14481	0.00061	-0.068512	-0.084229	0.014648	0.027771	-0.23605	0.059357	0.30777	0.15213	-0.004578	0.065155	0.008545	-0.14511	-0.048828	-0.004272	-0.007324
45.96	0.02655	0.1059	-0.15595	-0.001221	0.006866	-0.17319	0.01297	-0.00351	0.003967	-0.31632	-0.010529	0.002747	-0.007782	0.036926	-0.002289	-0.066071	-0.029297	-0.083923	-0.0383	0.02594	0.12253	-0.24323	0.008698	0.3125	0.10986	-0.001984	0.032806	0.006561	-0.035248	-0.046844	-0.004425	-0.012512
45.961	0.022888	0.036621	-0.15854	0.006866	0.056763	-0.006409	0.043488	0.005798	0.001221	-0.35492	-0.003815	0.007782	0.023651	0.10193	-0.016479	-0.014038	-0.024567	-0.070038	0.18219	-0.007172	0.061035	-0.22964	-0.082245	0.36041	0.048981	-0.009766	0.028381	0.004425	0.027924	-0.03952	-0.001678	-0.010529
45.962	0.022888	0.009155	-0.13794	0.00885	0.067291	0.044403	0.03891	0.009155	-0.015564	-0.22675	-0.006256	0.016174	0.014648	-0.064087	-0.011597	0.021973	-0.004272	0.066376	0.11841	0.053558	0.1297	-0.26428	-0.29358	0.27191	-0.02655	-0.008698	0.015717	0.005951	0.057068	-0.042877	-0.001373	-0.011597
45.963	0.026398	0.00473	-0.15503	0.004425	0.026245	0.07309	0.026398	0.005341	-0.019989	0.013733	0.008087	0.020294	-0.007629	-0.023193	0.000153	-0.011749	0.009155	0.14694	0.007629	0.019989	0.12695	-0.33737	-0.39887	0.016632	-0.1152	-0.012054	0.030975	0.005951	0.024261	-0.036163	0.001678	-0.007629
45.964	0.019836	0.016022	-0.15442	0.012512	0.039825	0.073547	0.056763	0.001831	-0.024414	0.39825	0.014954	0.019073	-0.059509	0.061188	-0.025787	-0.040436	0.054016	0.06134	-0.046234	0.005493	0.080719	-0.32532	-0.37689	0.004425	-0.066223	-0.007935	0.03418	0.007629	0.003967	-0.059052	-0.002594	-0.006104
45.965	0.018463	0.06134	-0.1561	0.021057	0.048828	0.036316	0.038605	0.007782	-0.008545	0.090637	0.001526	0.018005	-0.006409	0.13534	-0.002747	-0.056152	0.061951	0.13412	-0.15366	0.054474	0.006866	-0.003662	-0.22934	-0.11047	-0.008392	-0.004578	0.047455	0.007629	0.005035	-0.037079	0	-0.016785
45.966	0.006104	0.086975	-0.15869	0.000305	0.019684	-0.001678	0.018463	-0.003204	-0.002899	-0.34866	-0.000153	0.016479	0.03952	0.20264	-0.009613	-0.077972	0.063019	0.15305	-0.18585	0.033112	-0.008545	0.22095	-0.19119	-0.38116	0.030823	-0.008545	0.016479	0.004883	0.036926	-0.031281	-0.001526	-0.009155
45.967	0.049896	0.075073	-0.17822	-0.000305	-0.006561	0.007019	-0.007782	-0.000153	0.000153	-0.11093	0.000153	0.024109	0.008392	0.25177	-0.015259	-0.028076	0.086365	0.12039	-0.14023	-0.027313	0.047607	0.11551	-0.18143	-0.47531	0.063171	-0.003662	0.010376	0.00061	0.00824	-0.015564	0.000763	-0.003052
45.968	0.027771	0.062256	-0.18433	0.016022	0.013428	-0.006866	0.005035	0.005798	-0.016327	-0.02594	0.002594	0.005951	0.005646	0.21973	0.000458	-0.20935	0.11581	0.073395	-0.10696	-0.037231	0.1506	0.1059	-0.065613	-0.37201	-0.009766	-0.007172	0.019226	0.002136	-0.00412	-0.031281	-0.00412	-0.011597
45.969	0.018311	0.050812	-0.19409	0.00412	0.048523	0.012817	0.052948	0.008087	-0.00473	-0.034332	-0.001831	0.003815	0.028687	0.18906	0.007782	0.12299	0.15854	-0.024261	-0.000763	0.010376	0.20584	0.031128	-0.015564	-0.15549	-0.049896	-0.008392	0.018616	0.000763	-0.004883	-0.033722	-0.000916	0.000916
45.97	0.006104	0.009613	-0.20355	0.002289	0.041351	0.016327	0.041199	0.003662	-0.01709	-0.010223	-0.003052	0.005951	0.040283	0.049896	-0.011902	0.13321	0.22781	-0.074615	-0.019531	0.032349	0.15259	-0.18738	-0.083313	-0.048676	-0.019684	-0.000305	0.0177	-0.001831	-0.00473	-0.041351	-0.001526	-0.001831
45.971	0.007782	0.00351	-0.20142	-0.005798	0.052185	-0.02533	0.039063	0.002136	-0.010223	-0.041199	-0.00946	0.008392	0.009308	-0.057983	0.001221	0.048676	0.22217	-0.053406	-0.065308	-0.026093	0.16785	-0.13443	-0.10864	-0.016174	0.065308	-0.002747	0.022583	-0.017395	-0.02121	-0.032806	-0.001221	-0.003204
45.972	0.005035	0.028381	-0.19348	-0.006409	0.006104	-0.024567	0.056305	0.00061	0.016174	-0.18326	-0.012665	0.009613	-0.049133	-0.067139	0.019073	0.005493	0.17777	-0.1326	-0.35141	-0.083313	-0.12817	-0.039825	-0.049744	-0.076904	0.077972	-0.002441	0.006409	-0.015869	-0.027313	-0.039978	0.000916	-0.002899
45.973	0.009003	0.049438	-0.17868	0.008087	-0.037994	-0.009613	0.031738	0.00351	0.010071	-0.086975	-0.00885	0.011597	-0.065765	0.039673	0.029297	-0.001984	0.10407	-0.24262	-0.55969	-0.031738	-0.23071	0.10101	-0.11429	0.26001	0.1329	-0.002899	0.060425	-0.012512	-0.038605	-0.06073	-0.003204	-0.002136
45.974	0.005493	0.046539	-0.16953	-0.001984	-0.036774	-0.039825	0.031738	0.010834	-0.014954	0.12878	-0.005951	0.013275	-0.028687	0.024719	0.016022	-0.17792	-0.005035	-0.22446	-0.44006	0.029907	-0.39169	0.39291	-0.084686	0.41397	0.098114	-0.001526	0.17151	-0.010681	-0.093231	-0.042572	-0.002441	-0.007935
45.975	0.003052	0.03067	-0.16541	0.007019	-0.003967	-0.10452	0.030975	0.009766	-0.0383	0.11719	-0.000916	0.018005	0.011749	0.065308	-0.001526	0.09491	-0.079956	-0.20187	-0.10208	0.033264	-0.10407	0.52506	-0.065918	0.40848	0.15243	-0.001373	0.23209	0.00412	-0.19043	-0.0354	-0.001984	-0.006104
45.976	0.008087	-0.003052	-0.17059	-0.007782	-0.008698	-0.11978	0.016479	0.017395	-0.027924	-0.016937	0.00473	0.011749	0.004425	0.07431	-0.006409	0.27252	-0.088654	-0.16281	0.056915	-0.045929	0.18707	0.4245	-0.1796	0.30472	0.22964	-0.001984	0.2005	-0.005188	-0.20676	-0.048828	-0.001831	-0.002289
45.977	0.013123	0.016479	-0.15884	0.005188	-0.013733	-0.089111	-0.001221	0.003662	-0.019379	0.058289	0.011749	0.016937	-0.001678	0.039368	-0.016937	-0.77896	-0.089722	-0.17334	-0.057678	-0.22415	0.044556	0.26886	-0.27145	0.1152	0.23789	-0.005493	0.078888	0.000458	-0.14282	-0.056305	-0.011139	-0.011444
45.978	0.005341	0.054169	-0.16525	0.01709	-0.011139	-0.011292	-0.014038	0.009613	-0.030518	-0.086823	0.0177	0.012665	0.029449	0.005493	-0.005341	-0.005493	-0.066833	-0.21469	-0.20309	-0.25986	-0.20233	0.24063	-0.21576	0.055389	0.057831	-0.000153	-0.1648	-0.000916	0.42969	-0.079193	-0.003357	-0.010071
45.979	0.016937	0.054321	-0.15854	0.012665	-0.015717	0.071716	-0.028229	0.007324	-0.040436	-0.22522	-0.000153	0.003662	0.062408	-0.021362	0.005646	0.19806	-0.057983	-0.24017	-0.37354	0.020447	-0.20737	0.056763	-0.046539	-0.072479	-0.16571	0.000153	-0.20783	0.013885	0.4541	-0.063324	-0.001984	-0.00885
45.98	0.022125	0.036621	-0.14221	0.005035	0.005035	0.070801	-0.016022	0.005951	-0.040436	-0.14969	0	0.010071	0.065002	-0.000916	0.018616	0.13641	-0.060883	-0.15396	-0.83496	0.13916	-0.073242	-0.031433	-0.040741	-0.041504	-0.13947	-0.005951	-0.16693	-0.000458	0.27283	-0.052948	-0.001373	-0.008698
45.981	0.010529	0.062256	-0.15823	0.009613	-0.002441	0.039215	-0.006561	0.007477	-0.056915	-0.10376	0.012817	-0.002747	0.056	0.034332	0.032043	0.039978	-0.098419	-0.10757	-0.24674	0.12009	-0.0383	-0.079803	-0.099487	0.005493	-0.094452	-0.000916	-0.093689	0.00412	-0.11795	-0.034637	-0.003052	-0.00473
45.982	0.014191	0.044708	-0.15472	-0.005188	-0.013123	0.006714	-0.003357	-0.004272	-0.046387	-0.15579	0.031891	0.004272	0.047455	0.071869	0.033264	-0.001373	-0.10147	-0.13397	0.4039	0.21408	0.026245	-0.11383	-0.1918	-0.006256	0.49591	0.000305	-0.086975	0.002289	-0.45151	0.006256	-0.001984	-0.01236
45.983	0.010986	0.053558	-0.15396	-0.010681	-0.016174	0.000153	-0.034485	0.001984	-0.037079	-0.18326	0.00824	0.005341	0.058136	0.069427	0.016785	-0.020905	-0.024109	-0.17609	0.9317	0.35523	-0.00824	-0.21942	0.02121	-0.11734	0.79544	-0.001526	-0.099335	0.004425	-0.33508	-0.007019	-0.003815	-0.008545
45.984	0.012207	0.065002	-0.15472	-0.010834	-0.015411	-0.003967	-0.003662	0.005951	-0.03891	-0.20279	-0.007019	0.007324	0.024109	0.055542	0.027466	0.003815	0.049744	-0.25192	0.36957	0.29663	0.031891	-0.42572	0.13031	-0.21713	0.48172	-0.007019	-0.069885	0.006104	-0.21469	-0.041962	-0.001526	-0.007019
45.985	0.019684	0.039978	-0.16815	0.002441	-0.045166	0.024719	0.002594	0.00946	-0.040131	-0.22049	-0.099335	0.006104	0.020142	0.025787	0.018158	0.026245	0.10376	-0.30136	-0.2359	0.073547	-0.050659	-0.49545	0.1741	-0.1622	-0.059814	-0.007019	-0.058899	0.003204	0.022125	-0.044861	-0.00412	-0.009918
45.986	0.009308	0.040283	-0.16235	0.014191	-0.088196	0.068817	-0.011139	0.009766	-0.04425	-0.084686	-0.069885	0.001373	-0.011902	-0.016632	0.023956	0.035095	0.14038	-0.2475	-0.27481	-0.02655	-0.14511	-0.45868	0.22659	-0.19989	-0.4071	-0.005798	-0.04303	0.00412	0.032196	-0.045319	-0.002441	-0.002441
45.987	0.010223	0.056152	-0.1416	0.007935	-0.066528	0.033722	-0.028534	0.004425	-0.031128	0.12283	-0.036011	0.016174	-0.041351	-0.064545	-0.005493	0.003662	0.11353	-0.20401	0.041046	-0.047455	-0.062561	-0.39337	0.19226	-0.13214	-0.52475	-0.001984	0.00824	0.005951	-0.027771	-0.058899	-0.000458	0.000916
45.988	0.012817	0.057526	-0.1413	0.003204	-0.028992	0.056915	-0.028992	0.006409	-0.028687	0.17425	0.00824	-0.001984	-0.00946	-0.041809	-0.00885	-0.009613	0.024567	-0.1413	-0.16403	-0.023804	-0.24338	-0.028534	0.095367	-0.039368	-0.50384	-0.000763	0.037384	0.004578	-0.074463	-0.062714	-0.00473	-0.000916
45.989	0.020905	0.086517	-0.16403	0.002441	-0.028381	0.005951	-0.044403	0.00473	-0.036163	0.29373	0.003052	0.002594	0.012054	-0.006714	-0.005951	-0.020905	0.00061	-0.16113	0.031738	0.029602	-0.026398	0.29434	0.12146	-0.00412	-0.57114	0.000153	0.020905	0.005035	-0.093536	-0.050507	0.000153	-0.00946
45.99	0.018616	0.090637	-0.17151	-0.010223	0.063324	-0.04715	-0.027008	-0.001221	-0.035858	0.11231	-0.005188	0.002899	0.006104	0.071716	-0.008392	-0.032806	-0.039063	-0.17654	-0.061951	0.030365	0.26169	0.45837	0.31296	0.026093	-0.59448	-0.001221	0.020294	0.00473	-0.067902	-0.032806	-0.00061	-0.010986
45.991	0.018768	0.1088	-0.15259	0.012512	0.094757	-0.056	-0.006409	0.00061	-0.042114	0.026245	0.012512	0.010986	0.025787	0.068665	0.002747	-0.031586	-0.025635	-0.096741	-0.45761	0.007935	0.053711	0.41992	0.35172	-0.075378	-0.43762	0.003052	0.026093	0.001221	-0.01709	-0.04364	-0.002136	-0.007935
45.992	0.012817	0.09964	-0.11063	0.007172	0.042419	-0.035706	0.000458	0.005798	-0.0383	0.18662	0.002136	0.014648	0.020905	0.028839	-0.00061	-0.005188	0.037842	-0.023193	-0.16312	-0.00885	-0.327	0.30914	0.23285	-0.18082	-0.21347	0.001678	0.004578	0.005493	0.046997	-0.034637	-0.003815	-0.007782
45.993	0.016174	0.13367	-0.10941	-0.012817	0.001831	-0.057678	0.005951	0.003357	-0.043488	0.14389	0.005341	0.009766	0.019379	0.015106	-0.01297	0.007782	0.002747	0.11963	0.10422	-0.02533	-0.39658	0.18295	0.028381	-0.18738	-0.10086	-0.000458	-0.011444	0.007935	0.071869	-0.063782	0.003052	-0.013885
45.994	0.011444	0.13138	-0.11459	0.000763	0.004272	-0.096893	0.010071	0.00824	-0.046844	0.004425	-0.005951	0.014496	0.021362	0.010376	-0.021973	-0.013123	-0.064545	0.18402	0.52216	-0.024719	-0.51682	0.15533	-0.1149	-0.10513	-0.016174	0.001221	0.037384	0.007935	0.022736	-0.048828	-0.002594	-0.01297
